<svg width="20" height="12" viewBox="0 0 20 12" fill="none" xmlns="http://www.w3.org/2000/svg">
<path d="M3.86109 7.5068e-08C4.26937 7.5068e-08 4.62436 0.280343 4.71723 0.669522L5.39598 3.07085H19.1177C19.3894 3.07085 19.6455 3.19581 19.8126 3.4097C19.9796 3.62359 20.0393 3.90214 19.9742 4.16577L18.3266 10.827C18.2293 11.2209 17.8758 11.4975 17.4701 11.4975H6.93007C6.52159 11.4975 6.16681 11.2174 6.07175 10.8198L6.07592 10.8347L3.17677 1.76563H0.882395C0.394961 1.76563 0 1.37029 0 0.882816C0 0.395148 0.394961 -0.000198892 0.882395 7.5068e-08H3.86109ZM17.9903 4.83649H5.89117L7.61002 9.73187H16.7798L17.9903 4.83649Z" fill="white"/>
</svg>
